<?xml version="1.0" encoding="UTF-8" standalone="no"?>
<!-- Created with Inkscape (http://www.inkscape.org/) -->

<svg
   width="100"
   height="100"
   viewBox="0 0 26.458334 26.458333"
   version="1.1"
   id="svg1429"
   xmlns:inkscape="http://www.inkscape.org/namespaces/inkscape"
   xmlns:sodipodi="http://sodipodi.sourceforge.net/DTD/sodipodi-0.dtd"
   xmlns="http://www.w3.org/2000/svg"
   xmlns:svg="http://www.w3.org/2000/svg">
  <sodipodi:namedview
     id="namedview1431"
     pagecolor="#ffffff"
     bordercolor="#000000"
     borderopacity="0.25"
     inkscape:showpageshadow="2"
     inkscape:pageopacity="0.0"
     inkscape:pagecheckerboard="0"
     inkscape:deskcolor="#d1d1d1"
     inkscape:document-units="mm"
     showgrid="false" />
  <defs
     id="defs1426" />
  <g
     inkscape:label="Layer 1"
     inkscape:groupmode="layer"
     id="layer1">
    <g
       id="g10"
       transform="matrix(0.26458333,0,0,0.26458333,-3.7041665,-3.7041665)">
      <g
         id="g6">
        <g
           id="g4">
          <circle
             cx="64"
             cy="64"
             r="50"
             style="fill:#f2f2f2"
             id="circle2" />
        </g>
      </g>
      <path
         d="m 67.1,44 c -0.9,0.3 -2.1,0.5 -3.8,0.6 0.1,-3.6 1,-6.7 2.8,-9.3 1.8,-2.6 4.8,-4.4 9,-5.3 0,0.1 0.1,0.2 0.1,0.4 0,0.2 0.1,0.3 0.1,0.4 0,0.1 0,0.2 0,0.4 0,0.1 0,0.3 0,0.4 0,1.5 -0.3,3.1 -1,4.9 -0.7,1.8 -1.8,3.5 -3.3,5 -1.3,1.2 -2.6,2.1 -3.9,2.5 z m 16.2,25.3 c -1.7,-2.4 -2.5,-5.1 -2.5,-8 0,-2.7 0.8,-5.2 2.3,-7.5 0.8,-1.2 2.2,-2.6 4.1,-4.3 -1.3,-1.5 -2.5,-2.7 -3.8,-3.6 -2.3,-1.6 -4.8,-2.3 -7.7,-2.3 -1.7,0 -3.8,0.4 -6.2,1.2 -2.4,0.8 -4.1,1.2 -5.2,1.2 -0.8,0 -2.5,-0.4 -5,-1.1 -2.5,-0.7 -4.7,-1.1 -6.4,-1.1 -4.1,0 -7.5,1.7 -10.2,5.2 -2.7,3.5 -4.1,8 -4.1,13.5 0,5.8 1.8,11.9 5.3,18.1 3.6,6.2 7.2,9.3 10.9,9.3 1.2,0 2.8,-0.4 4.8,-1.2 1.9,-0.8 3.7,-1.2 5.1,-1.2 1.6,0 3.4,0.4 5.4,1.2 2.2,0.8 3.9,1.2 5,1.2 3.1,0 6.2,-2.4 9.3,-7.1 2,-3 3.5,-6 4.4,-9 -1.9,-0.6 -3.8,-2.2 -5.5,-4.5 z"
         style="fill:#231f20"
         id="path8" />
    </g>
  </g>
</svg>
