<?xml version="1.0" encoding="UTF-8" standalone="no"?>
<svg
   id="Layer_1"
   version="1.1"
   viewBox="0 0 4096 4096"
   xml:space="preserve"
   width="4096"
   height="4096"
   xmlns="http://www.w3.org/2000/svg"
   xmlns:svg="http://www.w3.org/2000/svg"><defs
     id="defs22" /><style
     type="text/css"
     id="style2">
	.st0{fill:#57CEF3;}
	.st1{fill:#FFF200;}
	.st2{fill:#48FF48;}
	.st3{fill:#FF6C58;}
	.st4{fill:#FF3333;}
	.st5{fill:#0779E4;}
	.st6{fill:#314A52;}
</style><g
     id="Play_Store"><polygon
       class="st0"
       points="7,61 40,32 7,3 "
       id="polygon4" /><polygon
       class="st1"
       points="36,32 44,22 59,32 44,42 "
       id="polygon6" /><polygon
       class="st2"
       points="36,32 7,3 11,3 45,23 "
       id="polygon8" /><polygon
       class="st3"
       points="36,32 7,61 11,61 45,41 "
       id="polygon10" /><path
       class="st4"
       d="m 9.1,64 v 0 C 7.2,64 5.5,63 4.6,61.4 L 8,58.2 v 0.7 c 0,0.3 0.1,0.6 0.3,0.8 L 24,44 c 7.4,0 14.1,-1.2 18.3,-3.1 l 5.8,-3.4 v 4.6 L 11.7,63.3 C 11,63.8 10.1,64 9.1,64 Z"
       id="path12" /><path
       class="st5"
       d="M 9.1,4 C 8.5,4 8,4.5 8,5.1 V 36 c 0,4.4 7.2,8 16,8 L 5.5,62.5 C 4.6,61.6 4,60.3 4,58.9 V 5.1 C 4,2.3 6.3,0 9.1,0 Z"
       id="path14" /><path
       class="st6"
       d="M 8.3,4.3 C 8.5,4.1 8.8,4 9.1,4 9.3,4 9.5,4.1 9.7,4.2 l 45.5,26.6 c 0.5,0.2 0.8,0.7 0.8,1.2 0,0.5 -0.3,1 -0.7,1.3 l -11.4,6.6 2.9,2.9 10.4,-6.1 c 1.7,-1 2.7,-2.8 2.7,-4.7 0,-1.9 -1,-3.8 -2.7,-4.7 L 11.7,0.7 C 11,0.2 10.1,0 9.1,0 7.7,0 6.4,0.6 5.5,1.5 Z"
       id="path16" /></g></svg>
