<?xml version="1.0" encoding="UTF-8" standalone="no"?>
<!-- Created with Inkscape (http://www.inkscape.org/) -->

<svg
   width="55.900002"
   height="63.999996"
   viewBox="0 0 14.790209 16.933332"
   version="1.1"
   id="svg254"
   xmlns:inkscape="http://www.inkscape.org/namespaces/inkscape"
   xmlns:sodipodi="http://sodipodi.sourceforge.net/DTD/sodipodi-0.dtd"
   xmlns="http://www.w3.org/2000/svg"
   xmlns:svg="http://www.w3.org/2000/svg">
  <sodipodi:namedview
     id="namedview256"
     pagecolor="#ffffff"
     bordercolor="#000000"
     borderopacity="0.25"
     inkscape:showpageshadow="2"
     inkscape:pageopacity="0.0"
     inkscape:pagecheckerboard="0"
     inkscape:deskcolor="#d1d1d1"
     inkscape:document-units="mm"
     showgrid="false" />
  <defs
     id="defs251" />
  <g
     inkscape:label="Layer 1"
     inkscape:groupmode="layer"
     id="layer1"
     transform="translate(-0.01322922)">
    <g
       id="Play_Store"
       transform="matrix(0.26458333,0,0,0.26458333,-1.0451041,1.0666666e-7)">
      <polygon
         class="st0"
         points="7,61 40,32 7,3 "
         id="polygon4"
         style="fill:#57cef3" />
      <polygon
         class="st1"
         points="59,32 44,42 36,32 44,22 "
         id="polygon6"
         style="fill:#fff200" />
      <polygon
         class="st2"
         points="11,3 45,23 36,32 7,3 "
         id="polygon8"
         style="fill:#48ff48" />
      <polygon
         class="st3"
         points="11,61 45,41 36,32 7,61 "
         id="polygon10"
         style="fill:#ff6c58" />
      <path
         class="st4"
         d="m 9.1,64 v 0 C 7.2,64 5.5,63 4.6,61.4 L 8,58.2 v 0.7 c 0,0.3 0.1,0.6 0.3,0.8 L 24,44 c 7.4,0 14.1,-1.2 18.3,-3.1 l 5.8,-3.4 v 4.6 L 11.7,63.3 C 11,63.8 10.1,64 9.1,64 Z"
         id="path12"
         style="fill:#ff3333" />
      <path
         class="st5"
         d="M 9.1,4 C 8.5,4 8,4.5 8,5.1 V 36 c 0,4.4 7.2,8 16,8 L 5.5,62.5 C 4.6,61.6 4,60.3 4,58.9 V 5.1 C 4,2.3 6.3,0 9.1,0 Z"
         id="path14"
         style="fill:#0779e4" />
      <path
         class="st6"
         d="M 8.3,4.3 C 8.5,4.1 8.8,4 9.1,4 9.3,4 9.5,4.1 9.7,4.2 l 45.5,26.6 c 0.5,0.2 0.8,0.7 0.8,1.2 0,0.5 -0.3,1 -0.7,1.3 l -11.4,6.6 2.9,2.9 10.4,-6.1 c 1.7,-1 2.7,-2.8 2.7,-4.7 0,-1.9 -1,-3.8 -2.7,-4.7 L 11.7,0.7 C 11,0.2 10.1,0 9.1,0 7.7,0 6.4,0.6 5.5,1.5 Z"
         id="path16"
         style="fill:#314a52" />
    </g>
  </g>
</svg>
