<?xml version="1.0" encoding="UTF-8"?>
<svg xmlns="http://www.w3.org/2000/svg" xmlns:xlink="http://www.w3.org/1999/xlink" width="509.4pt" height="282.7pt" viewBox="0 0 509.4 282.7" version="1.1">
<defs>
<clipPath id="clip1">
  <path d="M 1 0 L 509.398438 0 L 509.398438 280 L 1 280 Z M 1 0 "/>
</clipPath>
</defs>
<g id="surface1">
<g clip-path="url(#clip1)" clip-rule="nonzero">
<path style=" stroke:none;fill-rule:evenodd;fill:rgb(34.521484%,0.784302%,34.910583%);fill-opacity:1;" d="M 96.410156 -0.0507813 C 106.492188 0.230469 116.289063 3.371094 125.320313 7.730469 C 143.921875 16.300781 159.078125 31.539063 168.773438 49.46875 C 178.511719 67.359375 182.101563 88.269531 179.78125 108.460938 C 192.339844 85.878906 208.171875 64.5 229.191406 49.128906 C 236.523438 44.058594 244.429688 38.878906 253.570313 38.160156 C 258.691406 37.648438 264.222656 39.421875 267.390625 43.640625 C 272.320313 50.320313 273.472656 58.871094 274.089844 66.929688 C 274.996094 83.480469 272.773438 100.070313 269.496094 116.28125 C 278.652344 95.328125 290.691406 75.160156 307.601563 59.550781 C 321.203125 46.179688 340.601563 39.601563 359.53125 40.738281 C 352.492188 62.46875 347.632813 85.109375 347.339844 108.03125 C 346.960938 126.5 349.289063 145.378906 356.839844 162.390625 C 365.390625 181.5 382.679688 197.328125 403.589844 201.269531 C 406.410156 202.011719 409.953125 201.109375 412.0625 203.601563 C 378.328125 206.21875 343.746094 184.988281 332.089844 153.011719 C 324.453125 133.320313 323.890625 111.699219 325.570313 90.890625 C 326.472656 80.730469 328.039063 70.640625 330.3125 60.699219 C 321.972656 64.300781 315.023438 70.339844 308.601563 76.628906 C 296.730469 88.550781 287.722656 102.949219 279.953125 117.78125 C 268.730469 139.078125 261.273438 162.210938 256.371094 185.730469 C 248.402344 185.738281 240.433594 185.78125 232.460938 185.71875 C 241.453125 153.230469 249.621094 120.378906 253.933594 86.890625 C 255.078125 76.167969 256.382813 65.191406 254.371094 54.488281 C 253.683594 51.660156 252.480469 47.789063 249.070313 47.460938 C 244.480469 47.488281 240.632813 50.46875 236.992188 52.941406 C 223.328125 63.011719 213.121094 76.898438 204.3125 91.21875 C 186.632813 120.578125 175.101563 153.109375 165.140625 185.75 C 157.0625 185.75 148.980469 185.730469 140.902344 185.761719 C 150.722656 155.460938 157.742188 123.941406 158.371094 91.988281 C 158.328125 71.261719 155.101563 49.460938 143.132813 32.019531 C 132.996094 16.890625 117.140625 5.261719 99.089844 1.871094 C 97.839844 1.730469 96.953125 1.089844 96.410156 -0.0507813 Z M 14.382813 228.089844 C 23.496094 223.667969 35.773438 224.769531 42.820313 232.480469 C 45.761719 235.519531 47.03125 239.640625 47.832031 243.699219 C 44.167969 243.769531 40.523438 243.75 36.871094 243.730469 C 35.902344 241.378906 34.929688 238.828125 32.730469 237.351563 C 27.28125 233.289063 18.613281 235.191406 15.242188 241.070313 C 12.0625 246.621094 11.601563 253.570313 13.429688 259.660156 C 14.570313 263.628906 17.402344 267.261719 21.351563 268.710938 C 25.53125 270.121094 30.539063 269.699219 34.113281 266.980469 C 36.613281 264.960938 37.546875 261.75 38.183594 258.730469 C 34.402344 258.75 30.621094 258.75 26.851563 258.761719 C 26.851563 255.921875 26.851563 253.078125 26.851563 250.25 C 34.023438 250.238281 41.179688 250.261719 48.351563 250.25 C 48.351563 259.5 48.363281 268.75 48.351563 278 C 45.917969 278 43.496094 278 41.089844 278 C 40.722656 276.167969 40.351563 274.339844 39.996094 272.511719 C 31.851563 282.679688 14.953125 280.351563 7.167969 270.910156 C 1.167969 264.019531 0.0625 254.167969 1.667969 245.46875 C 3.085938 238.191406 7.621094 231.390625 14.382813 228.089844 Z M 192.660156 244.730469 C 192.53125 238.730469 192.613281 232.738281 192.613281 226.738281 C 196.113281 226.75 199.613281 226.75 203.121094 226.761719 C 203.089844 243.851563 203.101563 260.929688 203.113281 278.019531 C 199.761719 278 196.402344 278 193.050781 277.980469 C 193.070313 276.589844 193.113281 275.191406 193.160156 273.808594 C 187.230469 281.46875 173.941406 280.339844 168.980469 272.199219 C 163.960938 264.269531 163.890625 252.96875 169.632813 245.398438 C 175.039063 238.28125 186.871094 237.808594 192.660156 244.730469 Z M 181.3125 248.25 C 178.730469 249.210938 177.03125 251.660156 176.363281 254.261719 C 175.023438 258.988281 175.480469 264.570313 178.671875 268.480469 C 181.921875 272.320313 188.953125 271.761719 191.273438 267.191406 C 193.660156 262.460938 193.703125 256.488281 191.363281 251.75 C 189.691406 248.039063 184.902344 246.851563 181.3125 248.25 Z M 231.339844 226.75 C 236.632813 226.75 241.921875 226.75 247.210938 226.730469 C 251.140625 238.328125 255.089844 249.917969 259.03125 261.511719 C 262.890625 249.949219 266.472656 238.308594 270.300781 226.738281 C 275.652344 226.761719 280.996094 226.75 286.351563 226.738281 C 286.351563 243.828125 286.363281 260.929688 286.351563 278.019531 C 282.761719 278 279.179688 278 275.589844 278.011719 C 275.578125 266.101563 275.632813 254.191406 275.578125 242.28125 C 271.222656 254.121094 267.339844 266.128906 263.101563 278.011719 C 260.171875 278.011719 257.242188 278 254.320313 278.011719 C 250.191406 266.148438 246.132813 254.28125 241.882813 242.46875 C 241.800781 254.308594 241.882813 266.148438 241.851563 277.988281 C 238.339844 278 234.839844 278 231.328125 278 C 231.371094 260.910156 231.351563 243.828125 231.339844 226.75 Z M 66.039063 246.96875 C 68.789063 242 74.410156 239.070313 80.0625 239.839844 C 80.113281 243.121094 80.113281 246.398438 80.113281 249.691406 C 77.03125 249.5 73.667969 249.109375 70.917969 250.828125 C 67.890625 252.730469 66.667969 256.539063 66.621094 259.949219 C 66.546875 265.96875 66.632813 271.988281 66.613281 278.019531 C 63.101563 277.988281 59.601563 278 56.089844 278 C 56.113281 265.578125 56.082031 253.160156 56.101563 240.75 C 59.441406 240.75 62.789063 240.738281 66.132813 240.761719 C 66.113281 242.828125 66.089844 244.890625 66.039063 246.96875 Z M 90.210938 241.871094 C 97.28125 238.929688 105.863281 238.890625 112.78125 242.269531 C 117.820313 244.898438 117.203125 251.160156 117.113281 255.960938 C 117.410156 263.308594 116.179688 270.871094 118.3125 278.03125 C 114.839844 277.988281 111.363281 278 107.890625 278.011719 C 107.652344 276.949219 107.402344 275.890625 107.160156 274.839844 C 101.996094 278.988281 94.632813 280.089844 88.460938 277.738281 C 80.910156 274.941406 79.941406 262.730469 86.882813 258.75 C 92.332031 255.601563 98.992188 256.800781 104.722656 254.589844 C 107.941406 253.390625 107.089844 248.230469 104.050781 247.351563 C 101.472656 246.539063 98.363281 246.410156 96.03125 247.980469 C 94.492188 249 94.140625 250.941406 93.417969 252.519531 C 89.980469 252.488281 86.539063 252.511719 83.113281 252.46875 C 83.746094 248.089844 85.839844 243.578125 90.210938 241.871094 Z M 95.152344 263.121094 C 91.992188 264.53125 91.621094 269.769531 94.960938 271.199219 C 98.140625 272.46875 102.222656 272.070313 104.789063 269.671875 C 107.039063 267.121094 106.671875 263.46875 107.039063 260.320313 C 103.152344 261.570313 98.929688 261.53125 95.152344 263.121094 Z M 134.511719 245.558594 C 139.078125 239.25 148.523438 237.980469 154.921875 242.140625 C 158.289063 244.589844 159.28125 249.050781 159.351563 252.988281 C 159.371094 261.328125 159.339844 269.660156 159.339844 277.988281 C 155.921875 278.011719 152.496094 278 149.089844 278.019531 C 149.050781 270.679688 149.171875 263.339844 149.078125 256.011719 C 149.039063 253.050781 148.179688 249.230469 144.921875 248.320313 C 140.746094 246.839844 135.882813 249.628906 135.429688 254.109375 C 134.652344 262.03125 135.328125 270.039063 135.089844 277.988281 C 131.601563 278 128.113281 278.011719 124.621094 278.019531 C 124.570313 265.601563 124.613281 253.167969 124.601563 240.75 C 127.941406 240.75 131.289063 240.761719 134.632813 240.738281 C 134.601563 242.339844 134.5625 243.949219 134.511719 245.558594 Z M 298.839844 244.691406 C 305.800781 238.101563 318.3125 237.941406 324.871094 245.199219 C 328.992188 249.71875 330.121094 256.070313 329.921875 262.011719 C 320.972656 262.03125 312.019531 261.929688 303.078125 262.058594 C 303.789063 264.878906 304.339844 268.371094 307.222656 269.839844 C 311.703125 272.410156 317.839844 270.769531 320.402344 266.28125 C 323.402344 266.238281 326.402344 266.238281 329.410156 266.269531 C 327.78125 270.558594 325.363281 274.917969 321.011719 276.941406 C 313.191406 280.730469 302.371094 279.308594 296.882813 272.199219 C 291.023438 264.191406 291.570313 251.679688 298.839844 244.691406 Z M 305.410156 250.261719 C 304.191406 251.671875 303.730469 253.53125 303.019531 255.199219 C 308.5625 255.269531 314.101563 255.28125 319.640625 255.199219 C 318.742188 252.789063 318.0625 249.898438 315.578125 248.601563 C 312.328125 246.96875 307.882813 247.460938 305.410156 250.261719 Z M 345.273438 247.230469 C 348.078125 242.179688 353.761719 239.011719 359.578125 239.871094 C 359.613281 243.148438 359.601563 246.441406 359.5625 249.71875 C 356.371094 249.460938 352.820313 249.078125 350.0625 251.070313 C 346.820313 253.21875 346.101563 257.429688 345.910156 261.039063 C 345.742188 266.691406 345.902344 272.351563 345.851563 278 C 342.429688 278 339.011719 278 335.589844 278 C 335.613281 265.578125 335.589844 253.160156 335.601563 240.75 C 338.851563 240.738281 342.113281 240.738281 345.371094 240.761719 C 345.351563 242.910156 345.328125 245.070313 345.273438 247.230469 Z M 365.132813 248.058594 C 370.621094 238.78125 384.371094 237.371094 392.820313 243.25 C 396.371094 245.679688 398.113281 249.820313 398.632813 253.96875 C 395.261719 254.011719 391.910156 254.019531 388.550781 254 C 387.78125 252.359375 387.402344 250.359375 385.871094 249.230469 C 382.382813 246.53125 376.621094 247.429688 374.519531 251.441406 C 371.839844 256.261719 371.800781 262.640625 374.496094 267.460938 C 376.789063 271.851563 383.480469 272.140625 386.621094 268.570313 C 387.789063 267.101563 388.230469 265.21875 388.921875 263.5 C 392.230469 263.488281 395.53125 263.480469 398.851563 263.550781 C 398.050781 269.019531 395.160156 274.460938 390.03125 276.949219 C 383.210938 280.179688 374.351563 279.621094 368.453125 274.699219 C 360.910156 268.269531 360.390625 256.289063 365.132813 248.058594 Z M 456.050781 247.199219 C 458.863281 242.140625 464.496094 239.039063 470.3125 239.839844 C 470.351563 243.128906 470.351563 246.410156 470.351563 249.699219 C 467.242188 249.53125 463.773438 249.03125 461.039063 250.910156 C 457.640625 253.058594 456.820313 257.371094 456.660156 261.101563 C 456.492188 266.730469 456.640625 272.359375 456.613281 278 C 453.191406 278 449.761719 278 446.339844 278 C 446.351563 265.578125 446.339844 253.167969 446.351563 240.75 C 449.601563 240.75 452.863281 240.738281 456.121094 240.75 C 456.101563 242.890625 456.078125 245.039063 456.050781 247.199219 Z M 479.089844 243.898438 C 486.246094 237.988281 498.300781 238.28125 504.453125 245.550781 C 508.351563 250.058594 509.421875 256.230469 509.160156 262.019531 C 500.242188 262.011719 491.328125 261.96875 482.410156 262.039063 C 483.070313 264.628906 483.421875 267.648438 485.800781 269.328125 C 490.160156 272.589844 497.078125 271.050781 499.703125 266.261719 C 502.710938 266.238281 505.730469 266.238281 508.746094 266.269531 C 507.050781 270.808594 504.28125 275.351563 499.632813 277.300781 C 491.746094 280.558594 481.28125 279.148438 475.996094 271.96875 C 470.171875 263.621094 470.996094 250.558594 479.089844 243.898438 Z M 486.179688 249 C 483.890625 250.28125 483.269531 252.980469 482.339844 255.210938 C 487.863281 255.28125 493.390625 255.25 498.929688 255.238281 C 498.179688 253.359375 497.789063 251.210938 496.28125 249.761719 C 493.710938 247.070313 489.203125 247.148438 486.179688 249 Z M 404.089844 240.761719 C 407.589844 240.761719 411.089844 240.738281 414.589844 240.730469 C 414.632813 248.160156 414.570313 255.589844 414.601563 263.03125 C 414.640625 265.46875 415.152344 268.308594 417.351563 269.761719 C 419.992188 271.359375 423.660156 270.910156 426.023438 268.988281 C 428.152344 266.890625 428.410156 263.691406 428.589844 260.859375 C 428.652344 254.160156 428.5625 247.449219 428.601563 240.75 C 432.011719 240.75 435.429688 240.75 438.851563 240.75 C 438.851563 253.160156 438.839844 265.578125 438.851563 277.988281 C 435.589844 278.011719 432.328125 278 429.078125 278.011719 C 429.078125 276.339844 429.101563 274.679688 429.121094 273.019531 C 424.621094 279.46875 415.011719 280.78125 408.621094 276.511719 C 404.761719 273.640625 404.203125 268.429688 404.101563 263.988281 C 404.070313 256.25 404.113281 248.5 404.089844 240.761719 Z M 404.089844 240.761719 "/>
</g>
</g>
</svg>
