<?xml version="1.0" encoding="utf-8"?>
<!-- Generator: Adobe Illustrator 19.2.1, SVG Export Plug-In . SVG Version: 6.00 Build 0)  -->
<svg version="1.1" id="layer" xmlns="http://www.w3.org/2000/svg" xmlns:xlink="http://www.w3.org/1999/xlink" x="0px" y="0px"
	 viewBox="0 0 652 652" style="enable-background:new 0 0 652 652;" xml:space="preserve">
<style type="text/css">
	.st0{fill-rule:evenodd;clip-rule:evenodd;fill:#6762AC;}
	.st1{fill-rule:evenodd;clip-rule:evenodd;fill:#F6BC15;}
	.st2{fill-rule:evenodd;clip-rule:evenodd;fill:#27A64A;}
	.st3{fill-rule:evenodd;clip-rule:evenodd;fill:#F4BB18;}
	.st4{fill-rule:evenodd;clip-rule:evenodd;fill:#6763AC;}
	.st5{fill-rule:evenodd;clip-rule:evenodd;fill:#0887C5;}
	.st6{fill-rule:evenodd;clip-rule:evenodd;fill:#273677;}
	.st7{fill-rule:evenodd;clip-rule:evenodd;fill:#839197;}
</style>
<g id="Shape_1">
	<g>
		<path class="st0" d="M142.9,273.8c-4.1-5.1-10-9.3-18.6-11l5,11.9c8.1-3.1,16.5,3,21,13.8C148.4,283.2,146.6,278.4,142.9,273.8z"
			/>
	</g>
</g>
<g id="Shape_1_1_">
	<g>
		<path class="st1" d="M124.4,262.8c8.6,1.7,14.5,5.9,18.6,11c2.9,3.6,4.9,7.8,6.5,12.3c5,12.1,6.3,26.8,7.1,38.9
			c4.5-1.5,8.9-3.1,13.3-4.6C166.7,293.8,158.8,266.6,124.4,262.8z"/>
	</g>
</g>
<g id="Shape_1_2_">
	<g>
		<path class="st2" d="M222.6,330.4c-6.6,0-12.8,1.8-18,4.9l5.1,11.7c7.7-6,20.6-5.3,27.1,1.4c10.9,9.6,6.7,30.5-10.9,32.1
			c14.5,0,25-11.5,26.7-22.9C252.7,343.1,239.6,330.4,222.6,330.4z"/>
	</g>
</g>
<g id="Shape_1_3_">
	<g>
		<path class="st3" d="M155.9,339l0,0.1c-1.4,20.6-6.2,32.7-11.4,39.2c-11.7,14.7-34.5,2.5-33.2-15.9c-0.1,0.3-0.1,0.7-0.1,1
			c-0.1,1.5-0.3,2.9-0.2,4.4c0.6,11.1,10.2,21.9,21.8,21.2c10.7-0.6,20.1-7.2,26.8-17.5c6.5-10,9.7-23.4,10.4-36.3
			c0-0.3,0-0.5,0-0.8L155.9,339z"/>
	</g>
</g>
<g id="Shape_1_4_">
	<g>
		<path class="st4" d="M178.8,317.5l-9.1,2.9l-13.2,4.6c-16.8,6-27.3,10.9-35.4,18.8c-5.5,5.8-8.6,11.8-9.7,17.6
			c-3,15.2,13,28.5,26.5,22.1c-1.2,0.5-4.6,1.1-7.4-0.1c-11.7-4.5-15.1-31.1,25.3-44.4l14.3-4.5c2.9-0.8,5.8-1.6,8.7-2.5l4.4-1
			l-0.7-15L178.8,317.5z M227.6,265.7c8.1,6,3.9,18.6-0.6,24.7l-1.5,2c-8.1,10.4-19.6,16.1-32,20c-0.4,4.9-0.6,10.1-0.5,15.2
			C242.5,309.3,243.3,275.5,227.6,265.7z"/>
	</g>
</g>
<g id="Shape_1_5_">
	<g>
		<path class="st5" d="M252.5,357.5c-2.3,15-14.9,23.9-27,24.9c-5.7,0.2-11.5-1.8-16.8-6.5c-20.7-18.4-19.1-75.3-6.7-95
			c15-23.8,36.1-6.9,23.5,11.6c0.5-0.7,1.1-1.4,1.6-2.2c16-21-5-37-26.6-20.6c-5.9,4.5-10.9,11-14.7,19
			c-15.2,32.1-7.9,90.1,31.5,99.7c3.4,0.8,6.7,1.1,9.9,0.7C243.4,387.3,253.2,373,252.5,357.5z"/>
	</g>
</g>
<g id="Hidden_Brains">
	<g>
		<path class="st6" d="M317.9,288.8v18.1h-16.7v-13.7c0-4.5-10-4.5-10-4.5v38.8c0,4.5,10,4.5,10,4.5v-18h16.7v13.5
			c0,4.5,10,4.5,10,4.5v-38.8C327.8,288.8,317.9,288.8,317.9,288.8z M338,297.2h6.2v-5.6c0-0.9-1.3-2.2-3-2.2h-6.3v5.6
			C334.9,296.1,336.2,297.2,338,297.2z M334.8,300.5v26.9c0,4.5,9.7,4.5,9.7,4.5V305C344.5,300.7,335.6,300.5,334.8,300.5z
			 M368.9,286.6V299c0,1.2,0.4,3,0.4,3s-2.8-1.8-6.3-1.8c-6.8,0-12.7,4.1-12.7,10.7v10.4c0,6.9,5.2,10.8,14.2,10.8c2.1,0,5.4-1,9-1
			c2,0,3.5,0.1,5.2,1v-40.5C378.6,286.7,369.9,286.6,368.9,286.6z M368.9,325.2c0,0-2.1,0.3-3.7,0.3c-3.9,0-5.2-1.8-5.2-5v-8.7
			c0-3.3,1.6-4.7,3.8-4.7c2.6,0,5.1,1.7,5.1,4.2V325.2z M403,286.6V299c0,1.2,0.4,3,0.4,3s-2.8-1.8-6.3-1.8
			c-6.8,0-12.7,4.1-12.7,10.7v10.4c0,6.9,5.2,10.8,14.2,10.8c2.1,0,5.4-1,9-1c2,0,3.5,0.1,5.2,1v-40.5
			C412.7,286.7,403.9,286.6,403,286.6z M403,325.2c0,0-2.1,0.3-3.7,0.3c-3.9,0-5.2-1.8-5.2-5v-8.7c0-3.3,1.6-4.7,3.8-4.7
			c2.6,0,5.1,1.7,5.1,4.2V325.2z M434,325.1c-3.5,0-5.8-1.4-5.8-4.7v-0.9c0,0,1.8,0.9,4.7,0.9c9.7,0,12.3-4.7,12.3-9.8
			c0-6.2-3.8-10.3-12.8-10.3c-9,0-14,4.1-14,10.9v10.1c0,6.8,5.3,10.9,15.2,10.9c7.4,0,12-3.3,12-7.5c0-1.6-0.7-3.4-2.1-5.3
			C443.6,322.4,440,325.1,434,325.1z M428.2,312c0-3.2,0.9-4.9,3.8-4.9c2.5,0,3.5,1.4,3.5,3.5c0,2.5-2,3.2-4.1,3.2
			c-1.2,0-2.4-0.2-3.3-0.5V312z M466.1,300.2c-3.1,0-5.8,1.2-8.6,1.2c-3.8,0-6.4-1.4-6.4-1.4v27.3c0,4.5,9.7,4.5,9.7,4.5v-24.1
			c0,0,2.4-0.5,4.5-0.5c3.3,0,4.4,1.4,4.4,4.2v16c0,4.3,9.7,4.5,9.7,4.5v-21.4C479.4,302.4,472.6,300.2,466.1,300.2z M528.6,310.1
			c2.7-1,4.6-5.1,4.6-8.5v-1.2c0-8.5-6.8-11.2-16.1-11.2h-14.5V327c0,4.4,7.4,4.5,7.4,4.5h7.1c9.9,0,16.7-3.2,16.7-11.3v-1.3
			C533.8,315.3,531.8,311.4,528.6,310.1z M512.5,296.4h4.6c4.2,0,6.2,1.1,6.2,4.4c0,3.8-1.5,5.9-5.7,5.9h-5V296.4z M517.1,324.4
			h-4.6v-10.7h5c4.4,0,6.3,1.7,6.3,5.6C523.9,323.1,521.8,324.4,517.1,324.4z M554,300.2c-3.6,0-6.6,1.2-9.3,1.2
			c-1.4,0-3-0.4-5.1-1.4v27.3c0,4.5,9.7,4.5,9.7,4.5v-24.1c4.3-1,9.7-0.1,9.7,5.3c0,0,3.5-2.8,3.5-6.9
			C562.5,301.6,558.1,300.2,554,300.2z M576.3,300.2c-4,0-12.2,1.2-12.2,7c0,1.8,0.5,3.9,2.7,6.7c0-5.5,5-6.8,9.4-6.8
			c3.8,0,4.8,1.6,4.8,3c-2.7,3.9-17.7,1.9-17.7,12.5c0,7.3,6.3,9.5,12.7,9.5c3.4,0,6.7-1,9.7-1c1.6,0,3.4,0.2,5,1v-21.5
			C590.7,303.9,585.7,300.2,576.3,300.2z M581.2,325c0,0-2.1,0.6-4.2,0.6c-2,0-3.9-0.6-3.9-3.3c0-3.7,6.6-2.8,8.2-5.2V325z
			 M596.8,300.5v26.9c0,4.5,9.7,4.5,9.7,4.5V305C606.5,300.7,597.6,300.5,596.8,300.5z M600,297.2h6.2v-5.6c0-0.9-1.3-2.2-3-2.2H597
			v5.6C597,296.1,598.2,297.2,600,297.2z M628,300.2c-3.1,0-5.8,1.2-8.6,1.2c-3.8,0-6.4-1.4-6.4-1.4v27.3c0,4.5,9.7,4.5,9.7,4.5
			v-24.1c0,0,2.4-0.5,4.5-0.5c3.3,0,4.4,1.4,4.4,4.2v16c0,4.3,9.7,4.5,9.7,4.5v-21.4C641.4,302.4,634.5,300.2,628,300.2z
			 M655.5,309.7c0-1.7,2.4-2.4,5.4-2.4c4,0,8.9,1.4,8.9,4.7c1.9-2.1,2.7-4.1,2.7-5.7c0-3.8-4.7-6-12.6-6c-9,0-13.9,3.2-13.9,10.1
			c0,12.8,18.8,6.7,18.8,11.8c0,2.9-3,3.2-4.9,3.2c-3.1,0-9.4-0.3-9.7-6c-2.5,2.3-3.6,4.3-3.6,6.2c0,3.9,5,6.7,13.3,6.7
			c9.6,0,14.4-3.6,14.4-9.8C674.3,308.3,655.5,314.3,655.5,309.7z"/>
	</g>
</g>
<g id="Shape_18">
	<g>
		<path class="st7" d="M696.6,272.2L696.6,272.2c-8.2,0-14.6,6.3-14.6,14.5c0,8.1,6.4,14.5,14.5,14.5c8.1,0,14.4-6.4,14.4-14.5
			C711,278.5,704.6,272.2,696.6,272.2z M696.6,298.2c-6.3,0-11-5.1-11-11.5c0-6.3,4.7-11.5,10.8-11.5h0.1c6.2,0,10.8,5.2,10.8,11.6
			C707.4,293.1,702.7,298.3,696.6,298.2z M700.1,287v-0.2c1.4-0.5,2.5-1.5,2.5-3.1c0-1.3-0.5-2.2-1.3-2.7c-0.8-0.6-1.8-1-4.1-1
			c-2,0-3.5,0.2-4.7,0.4v12.8h2.8v-5.1h1.3c1.5,0,2.3,0.6,2.5,2c0.4,1.6,0.6,2.7,1,3.1h3c-0.2-0.5-0.5-1.2-0.9-3.1
			C701.8,288.5,701.3,287.4,700.1,287z M696.8,286.1h-1.3v-3.7c0.3-0.1,0.8-0.2,1.5-0.2c1.8,0,2.6,0.8,2.6,2
			C699.6,285.6,698.3,286.1,696.8,286.1z"/>
	</g>
</g>
<g id="Discover_Possibilities">
	<g>
		<path class="st7" d="M337.6,348.2h-9.1v22.2c0,1.6,2.5,1.7,2.8,1.7h6.3c5,0,9.8-1.7,9.8-7.9v-8.1
			C347.3,349.9,342.6,348.2,337.6,348.2z M344.5,363.9c0,4.4-3,5.9-6.9,5.9h-6.2v-19.2h6.2c3.9,0,6.9,1.4,6.9,5.9V363.9z
			 M352.1,354.8v15.9c0,1.7,2.7,1.7,2.7,1.7v-15.9C354.9,354.8,352.1,354.8,352.1,354.8z M354.3,348.7h-2.2v2.3
			c0,0.3,0.3,0.6,0.6,0.6h2.1v-2.3C354.9,349,354.6,348.7,354.3,348.7z M361.4,360c0-2.1,0.8-2.9,4-2.9c3.5,0,5.3,1.3,5.3,3.6
			c0.7-1.1,1-2,1-2.7c0-2.3-2.8-3.3-6.3-3.3c-4.3,0-6.7,1.9-6.7,5.3c0,7.2,11,2.3,11,7.2c0,1.7-0.8,3-4.3,3c-3.5,0-5.7-1.2-5.7-3.6
			c-0.7,1-0.9,1.9-0.9,2.6c0,2.4,3,3.4,6.6,3.4c4.7,0,7-2.1,7-5.2C372.4,359.4,361.4,364.1,361.4,360z M383,370.2
			c-3.2,0-4.5-1.2-4.5-3.6v-5.9c0-2.4,1.3-3.6,4.5-3.6c2.5,0,4.8,1.2,4.8,3.6c2.7-4-1-6-5-6c-4.3,0-7,2.1-7,5.5v6.9
			c0,3.5,2.7,5.5,7,5.5s8.4-2.1,5.7-6C388.5,369,386,370.2,383,370.2z M400.2,354.7c-5,0-7.4,2.1-7.4,5.5v6.9c0,3.5,2.4,5.5,7.4,5.5
			c5,0,7.4-2.1,7.4-5.5v-6.9C407.6,356.7,405.2,354.7,400.2,354.7z M404.9,366.6c0,2.4-0.8,3.8-4.7,3.8c-3.9,0-4.7-1.4-4.7-3.8v-5.9
			c0-2.4,0.8-3.8,4.7-3.8c3.9,0,4.7,1.4,4.7,3.8V366.6z M422.5,356.5l-0.7,5.7c-0.6,4.8-3.8,7.6-3.8,7.6s-3.3-2.8-3.8-7.6l-0.7-5.7
			c-0.2-1.7-2.8-1.7-2.8-1.7l0.7,6.7c0.8,7.8,6.6,11.3,6.7,11.3c0.1,0,5.9-3.5,6.7-11.3l0.7-6.7
			C425.4,354.8,422.7,354.8,422.5,356.5z M435.7,370.2c-3.2,0-4.5-1.2-4.5-3.6v-2.5c0.8,0.6,2.6,0.8,3.8,0.8c5,0,6.9-2.3,6.9-5.1
			c0-3.1-2.2-5.2-6.5-5.2s-6.9,2.1-6.9,5.5v6.9c0,3.5,2.7,5.5,7,5.5c3.4,0,6.6-1.2,6.6-3.6c0-0.7-0.3-1.5-0.9-2.4
			C441.2,369,438.7,370.2,435.7,370.2z M431.2,360.7c0-2.4,1.1-3.8,4.2-3.8c2.8,0,3.8,1.2,3.8,2.9c0,1.7-1.1,2.7-4.4,2.7
			c-1.5,0-3.5-0.5-3.6-0.6V360.7z M452.7,354.7c-1.9,0-3,0.7-4.5,0.7c-0.6,0-1.3-0.1-2.1-0.5v15.9c0,1.7,2.7,1.7,2.7,1.7v-14.7
			c0,0,1.5-0.6,3.3-0.6c2,0,3.6,0.9,3.6,2.8c0.7-0.9,1-1.6,1-2.4C456.8,355.6,455.1,354.7,452.7,354.7z M473.7,348.2h-6v22.6
			c0,1.7,2.9,1.7,2.9,1.7V364h3.1c5,0,9.4-1.6,9.4-7.6v-0.6C483.2,349.7,478.8,348.2,473.7,348.2z M473.7,361.6h-3.1v-11.1h3.1
			c3.9,0,6.6,1.1,6.6,5.5C480.3,360.9,477.6,361.6,473.7,361.6z M494.3,354.7c-5,0-7.4,2.1-7.4,5.5v6.9c0,3.5,2.4,5.5,7.4,5.5
			c5,0,7.4-2.1,7.4-5.5v-6.9C501.7,356.7,499.3,354.7,494.3,354.7z M498.9,366.6c0,2.4-0.8,3.8-4.7,3.8c-3.9,0-4.7-1.4-4.7-3.8v-5.9
			c0-2.4,0.8-3.8,4.7-3.8c3.9,0,4.7,1.4,4.7,3.8V366.6z M507.8,360c0-2.1,0.8-2.9,4-2.9c3.5,0,5.3,1.3,5.3,3.6c0.7-1.1,1-2,1-2.7
			c0-2.3-2.8-3.3-6.3-3.3c-4.3,0-6.7,1.9-6.7,5.3c0,7.2,11,2.3,11,7.2c0,1.7-0.8,3-4.3,3s-5.7-1.2-5.7-3.6c-0.7,1-0.9,1.9-0.9,2.6
			c0,2.4,3,3.4,6.6,3.4c4.7,0,7-2.1,7-5.2C518.8,359.4,507.8,364.1,507.8,360z M524.3,360c0-2.1,0.8-2.9,4-2.9
			c3.5,0,5.3,1.3,5.3,3.6c0.7-1.1,1-2,1-2.7c0-2.3-2.8-3.3-6.3-3.3c-4.3,0-6.7,1.9-6.7,5.3c0,7.2,11,2.3,11,7.2c0,1.7-0.8,3-4.3,3
			c-3.5,0-5.7-1.2-5.7-3.6c-0.7,1-0.9,1.9-0.9,2.6c0,2.4,3,3.4,6.6,3.4c4.7,0,7-2.1,7-5.2C535.3,359.4,524.3,364.1,524.3,360z
			 M541.2,348.7h-2.2v2.3c0,0.3,0.3,0.6,0.6,0.6h2.1v-2.3C541.8,349,541.5,348.7,541.2,348.7z M539.1,354.8v15.9
			c0,1.7,2.7,1.7,2.7,1.7v-15.9C541.8,354.8,539.1,354.8,539.1,354.8z M554.3,354.7c-4.1,0-5.3,1.9-5.3,1.9s0.3-0.8,0.3-3.1v-4.8
			c0-2.1-2.5-2.1-2.7-2.1v24.7c2.5,0.3,3.6,1.2,6.5,1.2c4.7,0,7.2-2,7.2-5.4v-7.1C560.3,356.7,557.6,354.7,554.3,354.7z
			 M557.6,366.6c0,2.5-1,3.7-4.5,3.7c-2.6,0-3.7-0.9-3.7-0.9v-9.3c0-2,2.3-3.4,4.5-3.4c2.1,0,3.7,1.1,3.7,3.7V366.6z M566.9,348.7
			h-2.2v2.3c0,0.3,0.3,0.6,0.6,0.6h2.1v-2.3C567.5,349,567.2,348.7,566.9,348.7z M564.8,354.8v15.9c0,1.7,2.7,1.7,2.7,1.7v-15.9
			C567.5,354.8,564.8,354.8,564.8,354.8z M574.9,366.5v-18.2c0-1.7-2.6-1.7-2.7-1.7v21c0,2.6,1,4.9,3.2,4.9c0.6,0,1.3-0.2,2-0.9
			C575.5,371.6,574.9,368.5,574.9,366.5z M582,348.7h-2.2v2.3c0,0.3,0.3,0.6,0.6,0.6h2.1v-2.3C582.6,349,582.3,348.7,582,348.7z
			 M579.8,354.8v15.9c0,1.7,2.7,1.7,2.7,1.7v-15.9C582.6,354.8,579.8,354.8,579.8,354.8z M593.6,370.2c-2.7,0-3.6-1.6-3.6-4.1v-8.2
			h5.4c1.7,0,1.7-2.4,1.7-2.4h-7.1v-2.8c0-1.7-2.7-1.7-2.7-1.7v16.1c0,3.5,2.4,5.5,6,5.5c2.8,0,5.6-1.2,5.6-3.5
			c0-0.7-0.3-1.6-0.9-2.5C598,368.9,596,370.2,593.6,370.2z M603.7,348.7h-2.2v2.3c0,0.3,0.3,0.6,0.6,0.6h2.1v-2.3
			C604.3,349,604,348.7,603.7,348.7z M601.5,354.8v15.9c0,1.7,2.7,1.7,2.7,1.7v-15.9C604.3,354.8,601.5,354.8,601.5,354.8z
			 M616,370.2c-3.2,0-4.5-1.2-4.5-3.6v-2.5c0.8,0.6,2.6,0.8,3.8,0.8c5,0,6.9-2.3,6.9-5.1c0-3.1-2.2-5.2-6.5-5.2
			c-4.3,0-6.9,2.1-6.9,5.5v6.9c0,3.5,2.7,5.5,7,5.5c3.4,0,6.6-1.2,6.6-3.6c0-0.7-0.3-1.5-0.9-2.4C621.4,369,618.9,370.2,616,370.2z
			 M611.5,360.7c0-2.4,1.1-3.8,4.2-3.8c2.8,0,3.8,1.2,3.8,2.9c0,1.7-1.1,2.7-4.4,2.7c-1.5,0-3.5-0.5-3.6-0.6V360.7z M628.1,360
			c0-2.1,0.8-2.9,4-2.9c3.5,0,5.3,1.3,5.3,3.6c0.7-1.1,1-2,1-2.7c0-2.3-2.8-3.3-6.3-3.3c-4.3,0-6.7,1.9-6.7,5.3c0,7.2,11,2.3,11,7.2
			c0,1.7-0.8,3-4.3,3c-3.5,0-5.7-1.2-5.7-3.6c-0.6,1-0.9,1.9-0.9,2.6c0,2.4,3,3.4,6.6,3.4c4.7,0,7-2.1,7-5.2
			C639.2,359.4,628.1,364.1,628.1,360z"/>
	</g>
</g>
</svg>
