<?xml version="1.0" encoding="UTF-8"?>
<svg xmlns="http://www.w3.org/2000/svg" xmlns:xlink="http://www.w3.org/1999/xlink" width="76pt" height="58pt" viewBox="0 0 76 58" version="1.1">
<g id="surface1">
<path style=" stroke:none;fill-rule:evenodd;fill:rgb(11.399841%,22.399902%,55.299377%);fill-opacity:1;" d="M 11.238281 23.789063 C 11.242188 23.417969 11.492188 23.230469 11.796875 23.230469 L 17.230469 23.230469 C 18.898438 23.421875 20.0625 24.269531 20.175781 26.5 L 20.175781 29.519531 C 20.175781 29.96875 20.152344 30.34375 20.019531 30.78125 C 19.589844 32.234375 18.550781 32.957031 17 33.058594 L 14.667969 33.058594 C 14.667969 34.289063 14.667969 35.519531 14.667969 36.753906 C 14.667969 37.03125 14.433594 37.167969 14.152344 37.167969 C 13.335938 37.167969 12.523438 37.167969 11.707031 37.167969 C 11.410156 37.167969 11.191406 37 11.191406 36.667969 Z M 14.691406 26.65625 L 16.140625 26.65625 C 16.464844 26.65625 16.730469 26.921875 16.730469 27.25 L 16.730469 28.992188 C 16.730469 29.320313 16.464844 29.585938 16.140625 29.585938 L 14.691406 29.585938 L 14.691406 26.65625 "/>
<path style=" stroke:none;fill-rule:evenodd;fill:rgb(11.399841%,22.399902%,55.299377%);fill-opacity:1;" d="M 22.855469 23.246094 L 26.652344 23.246094 C 28.875 23.378906 30.078125 24.542969 30.046875 26.964844 L 30.046875 35.925781 C 30.046875 36.621094 29.34375 37.148438 28.742188 37.148438 L 23.765625 37.148438 C 22.257813 37.148438 21.257813 35.96875 21.011719 34.816406 C 20.773438 33.707031 20.949219 32.367188 20.949219 31.234375 C 20.949219 29.488281 22.105469 27.753906 24.035156 27.753906 L 26.0625 27.753906 C 26.652344 27.722656 26.625 26.4375 26.0625 26.480469 L 22.894531 26.480469 C 22.574219 26.480469 22.347656 26.3125 22.320313 25.984375 C 22.320313 25.203125 22.320313 24.417969 22.320313 23.636719 C 22.320313 23.335938 22.566406 23.246094 22.855469 23.246094 Z M 24.949219 30.996094 L 26.105469 30.996094 C 26.378906 30.996094 26.601563 31.21875 26.601563 31.492188 L 26.601563 33.511719 C 26.601563 33.785156 26.378906 34.011719 26.105469 34.011719 L 24.949219 34.011719 C 24.675781 34.011719 24.453125 33.785156 24.453125 33.511719 L 24.453125 31.492188 C 24.453125 31.21875 24.675781 30.996094 24.949219 30.996094 "/>
<path style=" stroke:none;fill-rule:evenodd;fill:rgb(11.399841%,22.399902%,55.299377%);fill-opacity:1;" d="M 31.210938 23.878906 L 31.210938 29.539063 C 31.347656 31.316406 32.941406 32.644531 34.675781 32.644531 L 36.277344 32.644531 C 36.941406 32.644531 36.902344 33.757813 36.277344 33.757813 L 32.808594 33.757813 C 32.433594 33.757813 32.296875 33.953125 32.296875 34.285156 L 32.296875 36.777344 C 32.296875 37.027344 32.5 37.21875 32.765625 37.21875 L 35.980469 37.21875 C 38.660156 37.21875 40.183594 35.929688 40.183594 33.050781 L 40.183594 23.660156 C 40.183594 23.351563 39.992188 23.234375 39.804688 23.234375 L 37.109375 23.234375 C 36.863281 23.234375 36.71875 23.503906 36.71875 23.703125 L 36.71875 28.847656 C 36.71875 29.070313 36.59375 29.199219 36.394531 29.199219 L 35.121094 29.199219 C 34.828125 29.199219 34.667969 29.039063 34.667969 28.761719 L 34.667969 23.789063 C 34.667969 23.460938 34.535156 23.21875 34.171875 23.21875 C 33.308594 23.21875 32.445313 23.21875 31.582031 23.21875 C 31.285156 23.21875 31.210938 23.511719 31.210938 23.878906 "/>
<path style=" stroke:none;fill-rule:evenodd;fill:rgb(0%,68.199158%,93.699646%);fill-opacity:1;" d="M 41.539063 26.207031 L 41.539063 23.757813 C 41.539063 23.496094 41.753906 23.28125 42.015625 23.28125 L 42.605469 23.28125 C 44.125 22.964844 44.484375 22.074219 45.414063 21.074219 C 45.984375 20.457031 46.484375 20.292969 46.851563 20.949219 L 46.851563 23.28125 L 48.242188 23.28125 C 48.507813 23.28125 48.722656 23.496094 48.722656 23.757813 L 48.722656 26.207031 C 48.722656 26.46875 48.507813 26.683594 48.242188 26.683594 L 46.851563 26.683594 L 46.851563 36.714844 C 46.851563 36.976563 46.636719 37.191406 46.375 37.191406 L 43.925781 37.191406 C 43.664063 37.191406 43.449219 36.976563 43.449219 36.714844 L 43.449219 26.683594 L 42.015625 26.683594 C 41.757813 26.683594 41.539063 26.46875 41.539063 26.207031 "/>
<path style=" stroke:none;fill-rule:evenodd;fill:rgb(0%,68.199158%,93.699646%);fill-opacity:1;" d="M 58.878906 36.554688 C 58.878906 36.878906 58.609375 37.148438 58.28125 37.148438 L 55.988281 37.148438 C 55.660156 37.148438 55.390625 36.878906 55.390625 36.554688 L 55.390625 27.347656 C 55.410156 26.351563 53.402344 26.199219 53.402344 27.347656 L 53.402344 36.554688 C 53.402344 36.878906 53.136719 37.148438 52.804688 37.148438 L 50.515625 37.148438 C 50.183594 37.148438 49.914063 36.878906 49.914063 36.554688 L 49.914063 23.789063 C 49.914063 23.460938 50.183594 23.195313 50.515625 23.195313 L 52.804688 23.195313 C 53.136719 23.195313 53.402344 23.460938 53.402344 23.789063 L 53.402344 23.964844 C 54.746094 22.683594 57.066406 22.886719 58.300781 24.21875 C 60.628906 21.550781 64.613281 23.929688 64.429688 26.855469 C 64.429688 30.089844 64.402344 33.292969 64.402344 36.554688 C 64.402344 36.878906 64.132813 37.148438 63.804688 37.148438 L 61.511719 37.148438 C 61.179688 37.148438 60.914063 36.878906 60.914063 36.554688 C 60.914063 33.464844 60.914063 30.445313 60.914063 27.410156 C 60.78125 26.132813 58.851563 26.429688 58.855469 27.410156 C 58.855469 30.449219 58.878906 33.488281 58.878906 36.554688 "/>
</g>
</svg>
