<?xml version="1.0" encoding="UTF-8"?>
<svg xmlns="http://www.w3.org/2000/svg" xmlns:xlink="http://www.w3.org/1999/xlink" width="75pt" height="59pt" viewBox="0 0 75 59" version="1.1">
<g id="surface1">
<path style=" stroke:none;fill-rule:evenodd;fill:rgb(0%,44.699097%,73.699951%);fill-opacity:1;" d="M 18.042969 9.9375 L 57.332031 9.9375 L 57.332031 49.078125 L 18.042969 49.078125 L 18.042969 9.9375 "/>
<path style=" stroke:none;fill-rule:evenodd;fill:rgb(100%,100%,100%);fill-opacity:1;" d="M 47.480469 28.550781 C 47.792969 28.488281 49.976563 28.523438 50.476563 28.523438 C 50.925781 28.523438 51.523438 28.484375 51.933594 28.589844 C 54.0625 29.136719 54.046875 32.472656 51.742188 32.867188 C 51.402344 32.925781 49.257813 32.894531 48.738281 32.894531 C 48.300781 32.894531 47.664063 32.933594 47.28125 32.832031 C 46.03125 32.492188 45.441406 31.140625 45.835938 29.945313 C 46.066406 29.242188 46.652344 28.707031 47.480469 28.550781 Z M 54.832031 31.121094 C 54.984375 29.71875 54.378906 28.601563 53.621094 27.980469 C 53.21875 27.648438 52.78125 27.402344 52.148438 27.253906 C 51.609375 27.125 50.660156 27.179688 50.042969 27.179688 C 49.308594 27.179688 48.578125 27.179688 47.84375 27.179688 C 47.136719 27.175781 46.605469 27.335938 46.09375 27.632813 C 43.933594 28.871094 43.816406 31.914063 45.59375 33.4375 C 46.699219 34.378906 47.769531 34.242188 49.171875 34.242188 C 49.902344 34.242188 50.636719 34.242188 51.367188 34.242188 C 53.136719 34.242188 54.632813 32.992188 54.832031 31.121094 Z M 34.03125 28.140625 C 34.070313 28.367188 34.4375 28.851563 34.570313 29.042969 L 36.304688 31.597656 C 36.644531 32.097656 37.113281 32.820313 37.464844 33.300781 C 37.816406 33.785156 38.421875 34.316406 39.351563 34.273438 C 40.21875 34.234375 40.707031 33.683594 41.078125 33.144531 C 41.457031 32.59375 41.839844 32.019531 42.238281 31.441406 L 44.265625 28.457031 C 44.675781 27.847656 44.160156 27.183594 43.566406 27.296875 C 43.191406 27.371094 43.03125 27.707031 42.835938 28 L 41.683594 29.707031 C 41.296875 30.261719 40.914063 30.847656 40.523438 31.40625 C 40.324219 31.691406 40.144531 31.96875 39.945313 32.257813 C 39.785156 32.492188 39.527344 32.921875 39.089844 32.816406 C 38.765625 32.738281 38.539063 32.335938 38.378906 32.09375 C 38.183594 31.804688 38.003906 31.539063 37.800781 31.242188 C 37.414063 30.675781 37.046875 30.140625 36.644531 29.539063 C 36.253906 28.957031 35.890625 28.425781 35.488281 27.835938 C 35.308594 27.574219 35.105469 27.210938 34.613281 27.296875 C 34.261719 27.359375 33.957031 27.703125 34.03125 28.140625 Z M 20.523438 28.117188 C 20.558594 28.371094 20.925781 28.835938 21.058594 29.027344 L 23.371094 32.433594 C 23.945313 33.292969 24.5 34.324219 25.820313 34.277344 C 27.03125 34.230469 27.535156 33.214844 28.152344 32.296875 L 29.890625 29.746094 C 30.074219 29.464844 30.269531 29.179688 30.46875 28.894531 C 30.6875 28.578125 30.957031 28.265625 30.910156 27.914063 C 30.855469 27.550781 30.523438 27.234375 30.089844 27.292969 C 29.714844 27.347656 29.550781 27.671875 29.347656 27.980469 C 28.953125 28.574219 28.59375 29.089844 28.191406 29.683594 C 27.804688 30.257813 27.433594 30.820313 27.035156 31.386719 C 26.832031 31.675781 26.65625 31.945313 26.457031 32.238281 C 26.285156 32.480469 26.050781 32.902344 25.613281 32.824219 C 25.265625 32.761719 25.070313 32.363281 24.886719 32.101563 C 23.925781 30.734375 22.933594 29.238281 21.992188 27.84375 C 21.800781 27.5625 21.601563 27.222656 21.117188 27.296875 C 20.769531 27.347656 20.464844 27.683594 20.523438 28.117188 Z M 32.34375 27.304688 C 31.632813 27.453125 31.746094 28.058594 31.746094 28.800781 L 31.746094 33.027344 C 31.746094 33.382813 31.695313 33.707031 31.871094 33.964844 C 32.203125 34.460938 32.984375 34.34375 33.15625 33.777344 C 33.222656 33.554688 33.1875 30.992188 33.1875 30.644531 C 33.1875 29.945313 33.1875 29.238281 33.1875 28.535156 C 33.1875 28.175781 33.234375 27.867188 33.066406 27.605469 C 32.941406 27.414063 32.667969 27.234375 32.34375 27.304688 Z M 32.371094 24.761719 C 32.25 24.8125 32.175781 24.917969 32.089844 25.003906 L 31.570313 25.519531 C 31.230469 25.859375 31.507813 25.992188 31.933594 26.417969 C 32.023438 26.511719 32.101563 26.585938 32.191406 26.679688 C 32.53125 27.019531 32.652344 26.769531 33.097656 26.324219 C 33.714844 25.710938 33.695313 25.839844 32.738281 24.886719 C 32.65625 24.808594 32.546875 24.691406 32.371094 24.761719 "/>
</g>
</svg>
