<?xml version="1.0" encoding="utf-8"?>
<!-- Generator: Adobe Illustrator 24.0.0, SVG Export Plug-In . SVG Version: 6.00 Build 0)  -->
<svg version="1.1" id="Layer_1" xmlns="http://www.w3.org/2000/svg" xmlns:xlink="http://www.w3.org/1999/xlink" x="0px" y="0px"
	 viewBox="0 0 612 239.2" style="enable-background:new 0 0 612 239.2;" xml:space="preserve">
<style type="text/css">
	.st0{fill:#E71435;}
</style>
<g>
	<path class="st0" d="M529,130.3l-25.2-73.6h-36.1l43.4,121l-23.3,59.4h36.4L594,56.7h-36.1L529,130.3z M371.6,107.3
		c3.2-16.9,14.2-26.2,30.5-26.2c16.9,0,28.6,9.9,31.6,26.2H371.6z M468.5,126.8l0.3-6.7c0-39.9-27.6-67.7-67.2-67.7
		c-38.3,0-65.3,27.3-65.3,66.1c0,38.5,28.1,66.4,67.5,66.4c26.2,0,47.9-13.7,60.2-37.7l-31.3-8.6c-5.4,9.9-16.1,16.1-28.6,16.1
		c-16.9,0-29.4-10.7-32.4-27.8H468.5z M318.6,2.1h-34v178.5h34V2.1z M244.7,2.4c-11,0-19,8-19,19c0,10.7,8,18.7,19,18.7
		c10.7,0,18.7-8,18.7-18.5C263.4,10.4,255.7,2.4,244.7,2.4 M261.6,56.7h-34v123.9h34V56.7z M179.1,56.7L154,132.2l-22.2-75.5H99.1
		l-21.7,75.5L52.5,56.7H18l39.9,123.9H94l22.2-76l21.7,76h35.3l40.4-123.9H179.1z"/>
</g>
</svg>
